<?xml version="1.0" standalone="no"?>
<!DOCTYPE svg PUBLIC "-//W3C//DTD SVG 20010904//EN"
 "http://www.w3.org/TR/2001/REC-SVG-20010904/DTD/svg10.dtd">
<svg version="1.0" xmlns="http://www.w3.org/2000/svg"
 width="488.000000pt" height="395.000000pt" viewBox="0 0 488.000000 395.000000"
 preserveAspectRatio="xMidYMid meet">

<g transform="translate(0.000000,395.000000) scale(0.100000,-0.100000)"
fill="#000000" stroke="none">
<path d="M2036 3550 c-48 -16 -93 -34 -100 -39 -6 -5 -49 -20 -96 -32 -46 -12
-100 -32 -120 -44 -62 -39 -184 -99 -197 -97 -7 2 -13 -5 -13 -15 0 -11 -15
-27 -32 -38 -18 -10 -71 -58 -119 -107 -47 -48 -89 -88 -95 -88 -5 -1 -25 -24
-44 -52 -19 -27 -46 -62 -59 -77 -56 -62 -188 -277 -177 -288 3 -3 -6 -22 -19
-42 -12 -21 -30 -57 -38 -82 -8 -24 -21 -57 -28 -72 -10 -21 -10 -33 -2 -46 8
-12 8 -31 1 -62 -21 -101 -24 -131 -21 -288 2 -97 7 -169 14 -177 6 -7 11 -62
12 -123 1 -61 5 -111 10 -111 5 0 7 -10 4 -22 -6 -21 47 -148 65 -156 4 -2 14
-26 24 -54 9 -27 38 -79 65 -114 27 -36 49 -69 49 -74 0 -4 23 -35 50 -68 28
-33 50 -64 50 -69 0 -17 168 -172 231 -214 20 -13 61 -43 90 -66 30 -22 108
-69 174 -103 l120 -62 68 6 c50 5 67 3 67 -6 0 -16 90 -43 191 -59 68 -11 339
-7 424 6 130 19 159 25 165 34 3 6 41 22 83 36 114 37 269 121 281 151 3 8 15
14 27 14 34 0 85 36 210 147 110 98 159 151 159 172 0 5 11 18 25 29 14 11 25
26 25 33 0 7 18 40 40 73 21 34 56 97 76 141 41 89 125 338 124 370 -1 45 0
63 6 133 3 39 2 72 -2 72 -24 0 -65 -115 -79 -221 -8 -60 -45 -169 -81 -241
-15 -30 -20 -48 -13 -48 8 0 8 -5 -2 -17 -8 -10 -25 -39 -37 -65 -13 -25 -32
-55 -43 -67 -10 -11 -19 -25 -19 -32 0 -6 -13 -23 -28 -37 -16 -15 -40 -45
-54 -67 -34 -54 -212 -244 -257 -274 -20 -13 -49 -35 -64 -48 -16 -13 -36 -23
-46 -23 -10 0 -28 -12 -42 -26 -34 -36 -84 -65 -102 -58 -19 7 -77 -21 -98
-48 -13 -16 -34 -22 -100 -28 -97 -9 -181 -29 -174 -40 8 -13 -52 -22 -72 -12
-26 14 -146 13 -154 0 -6 -9 -19 -8 -51 2 -48 16 -53 17 -188 24 -52 2 -96 9
-98 15 -4 13 -79 35 -113 32 -15 0 -32 6 -39 14 -11 13 -10 15 6 9 15 -4 16
-3 4 4 -8 5 -32 13 -54 16 -40 8 -67 20 -97 46 -39 33 -48 39 -100 66 -72 36
-124 73 -181 128 -27 25 -48 41 -48 34 0 -6 -9 -3 -20 7 -11 10 -20 23 -20 29
0 6 -13 20 -29 30 -15 11 -34 29 -41 40 -12 19 -12 20 3 7 36 -29 16 10 -28
56 -25 25 -45 50 -45 54 0 4 -11 14 -24 22 -13 9 -40 49 -60 89 -20 40 -46 89
-58 108 -17 26 -18 32 -5 21 23 -19 21 -3 -5 39 -12 19 -23 42 -24 50 -1 8 -7
35 -13 59 -7 23 -10 45 -7 48 3 3 -3 17 -14 31 -13 16 -18 33 -14 48 3 13 2
24 -4 24 -5 0 -12 19 -15 43 -3 23 -11 71 -18 107 -6 36 -10 92 -8 125 8 124
3 249 -9 253 -17 5 -15 37 5 53 15 13 16 11 10 -11 -3 -14 -2 -32 3 -40 8 -13
10 -13 10 1 0 9 7 31 16 49 9 18 20 67 25 109 10 99 18 131 35 131 8 0 11 -7
8 -17 -5 -16 -4 -16 10 1 8 10 13 22 10 27 -7 12 58 138 99 192 21 27 49 69
63 93 14 24 30 44 34 44 4 0 13 23 20 50 14 58 25 69 42 41 9 -14 16 -17 24
-10 7 6 11 16 8 23 -3 8 8 18 25 26 20 8 31 20 31 32 0 13 5 18 13 15 7 -3 19
4 25 14 7 10 21 19 31 19 17 0 41 23 110 105 15 18 26 24 29 17 6 -20 28 -14
39 11 17 36 62 85 93 101 42 20 37 7 -15 -44 -25 -24 -45 -47 -45 -51 0 -9 59
4 86 19 11 6 27 19 35 29 10 13 6 11 -18 -5 -39 -28 -52 -28 -27 -1 27 30 77
55 82 40 4 -13 48 -4 77 15 11 8 37 14 58 14 l39 0 -16 25 c-25 39 -20 45 39
45 55 0 65 -6 44 -27 -9 -9 -6 -11 12 -9 38 5 112 27 142 43 21 11 48 13 125
7 53 -4 104 -10 114 -15 10 -6 27 -3 45 6 36 19 91 19 136 0 20 -8 57 -15 81
-15 60 0 98 -18 90 -42 -3 -10 -1 -18 5 -18 6 0 34 -11 63 -25 54 -26 73 -31
64 -16 -8 13 75 -7 102 -25 12 -8 22 -19 22 -24 0 -5 10 -14 21 -21 15 -8 19
-8 15 0 -9 14 -4 14 28 1 37 -14 32 -5 -11 21 -21 12 -47 30 -58 40 -12 10
-36 21 -55 23 -19 3 -48 10 -65 16 -24 9 -26 13 -15 21 11 7 8 8 -12 3 -17 -4
-29 -1 -35 9 -13 24 -63 43 -163 65 -188 42 -277 52 -443 52 -151 -1 -168 -3
-251 -30z"/>
<path d="M2530 3500 c0 -5 12 -10 28 -9 24 0 25 1 7 9 -27 12 -35 12 -35 0z"/>
<path d="M3155 3300 c3 -5 8 -10 11 -10 2 0 4 5 4 10 0 6 -5 10 -11 10 -5 0
-7 -4 -4 -10z"/>
<path d="M1590 3270 c-8 -5 -12 -12 -9 -15 4 -3 12 1 19 10 14 17 11 19 -10 5z"/>
<path d="M3220 3230 c14 -10 37 -28 52 -40 16 -12 29 -16 33 -10 8 12 -12 50
-27 50 -7 0 -6 -5 2 -15 11 -13 10 -14 -4 -9 -9 3 -16 9 -16 13 0 8 -45 31
-58 31 -4 -1 4 -9 18 -20z"/>
<path d="M3310 3216 c0 -2 8 -10 18 -17 15 -13 16 -12 3 4 -13 16 -21 21 -21
13z"/>
<path d="M3381 3124 c14 -17 32 -19 27 -2 -2 6 -12 12 -22 14 -14 2 -15 0 -5
-12z"/>
<path d="M3486 3067 c3 -10 9 -15 12 -12 3 3 0 11 -7 18 -10 9 -11 8 -5 -6z"/>
<path d="M1280 3024 c0 -8 5 -12 10 -9 6 3 10 10 10 16 0 5 -4 9 -10 9 -5 0
-10 -7 -10 -16z"/>
<path d="M3560 2881 c0 -6 4 -13 10 -16 6 -3 7 1 4 9 -7 18 -14 21 -14 7z"/>
<path d="M1021 2593 c-1 -6 -4 -20 -7 -30 -5 -17 -5 -17 6 0 6 10 9 23 6 30
-3 9 -5 9 -5 0z"/>
<path d="M3770 2435 c0 -5 5 -17 10 -25 5 -8 10 -10 10 -5 0 6 -5 17 -10 25
-5 8 -10 11 -10 5z"/>
<path d="M1996 2412 c-10 -16 -6 -292 4 -292 6 0 10 31 10 70 l0 70 50 0 c28
0 50 5 50 10 0 6 -22 10 -50 10 l-50 0 0 60 0 60 65 0 c37 0 65 4 65 10 0 12
-137 14 -144 2z"/>
<path d="M2211 2397 c-16 -42 -63 -268 -57 -274 3 -3 11 8 17 25 10 31 13 32
64 32 51 0 54 -1 60 -30 4 -16 11 -30 16 -30 11 0 11 4 -1 49 -5 20 -19 77
-31 126 -24 98 -34 125 -50 125 -5 0 -13 -10 -18 -23z m49 -97 c12 -50 20 -93
17 -96 -2 -3 -25 -4 -49 -2 l-44 3 20 93 c11 50 23 92 26 92 4 0 17 -41 30
-90z"/>
<path d="M2389 2402 c-15 -13 -22 -30 -22 -52 0 -29 9 -42 56 -86 45 -40 57
-57 57 -81 0 -36 -16 -53 -50 -53 -30 0 -50 17 -50 42 0 10 -4 18 -10 18 -16
0 -11 -26 11 -54 25 -31 57 -33 93 -5 44 35 36 74 -28 134 -59 55 -73 84 -56
115 8 14 21 20 46 20 30 0 37 -5 49 -32 11 -24 14 -28 15 -13 1 57 -64 84
-111 47z"/>
<path d="M2555 2410 c4 -6 10 -8 15 -5 5 3 21 3 35 -1 l25 -6 0 -146 c0 -80 2
-143 5 -141 2 3 6 70 8 150 l4 144 39 6 c27 4 12 7 -49 8 -58 1 -86 -3 -82 -9z"/>
<path d="M1468 2064 c-5 -4 -8 -74 -8 -156 l0 -148 50 0 c80 0 90 16 90 149 0
129 -9 148 -80 157 -25 3 -48 2 -52 -2z m96 -30 c20 -20 23 -223 4 -242 -7 -7
-29 -12 -50 -12 l-38 0 0 135 0 135 34 0 c19 0 42 -7 50 -16z"/>
<path d="M1660 1915 c0 -97 4 -155 10 -155 6 0 10 58 10 155 0 97 -4 155 -10
155 -6 0 -10 -58 -10 -155z"/>
<path d="M1790 2063 c-31 -12 -50 -37 -50 -68 0 -26 11 -42 60 -88 33 -30 60
-64 60 -74 0 -38 -30 -58 -78 -54 -7 0 -19 16 -27 34 -14 31 -14 31 -15 6 0
-33 29 -59 67 -59 38 0 63 27 63 70 0 27 -10 42 -56 85 -41 38 -56 59 -56 78
0 39 20 59 56 55 25 -2 33 -9 41 -35 9 -31 25 -45 25 -23 0 20 -29 68 -45 74
-19 7 -24 7 -45 -1z"/>
<path d="M1942 2051 c-4 -11 -5 -82 -2 -158 4 -122 5 -129 10 -63 5 69 7 75
28 76 12 1 31 2 42 3 58 3 81 91 35 136 -31 32 -102 36 -113 6z m99 -11 c14
-8 19 -21 19 -55 0 -51 -20 -68 -73 -63 -32 3 -32 3 -35 66 l-3 62 36 0 c20 0
45 -5 56 -10z"/>
<path d="M2167 2063 c-3 -5 -12 -37 -20 -73 -9 -36 -23 -95 -32 -132 -16 -67
-17 -127 -1 -83 17 45 23 50 74 53 l51 4 7 -36 c3 -20 10 -36 15 -36 5 0 9 2
9 4 0 13 -60 255 -69 279 -10 26 -25 35 -34 20z m61 -209 c-2 -2 -23 -6 -46
-10 -39 -6 -42 -5 -42 17 0 25 26 142 36 169 4 8 17 -27 31 -79 13 -51 22 -95
21 -97z"/>
<path d="M2275 2060 c-4 -6 10 -10 34 -10 l41 0 0 -145 c0 -90 4 -145 10 -145
6 0 10 55 10 145 l0 145 40 0 c22 0 40 5 40 10 0 6 -35 10 -84 10 -47 0 -88
-4 -91 -10z"/>
<path d="M2522 2058 c-30 -15 -37 -45 -36 -154 1 -113 16 -144 69 -144 39 0
75 29 75 60 0 27 -18 25 -22 -2 -4 -28 -44 -49 -71 -39 -29 11 -38 51 -35 149
2 96 16 125 56 120 19 -2 32 -13 43 -36 10 -19 19 -27 22 -20 8 23 -12 58 -38
68 -31 12 -33 12 -63 -2z"/>
<path d="M2690 1995 c-8 -144 -7 -210 1 -225 5 -9 9 14 9 58 l0 72 60 0 60 0
0 -71 c0 -44 4 -68 10 -64 6 4 10 65 10 150 0 85 -4 146 -10 150 -6 4 -10 -22
-10 -70 l0 -76 -57 3 -58 3 -6 75 -5 75 -4 -80z"/>
<path d="M2908 2053 c-2 -10 -2 -80 0 -155 l4 -138 69 0 c39 0 69 4 69 10 0 6
-28 10 -65 10 l-66 0 3 63 3 62 50 6 50 5 -50 5 -50 4 0 60 0 60 65 5 65 5
-55 7 c-79 11 -87 10 -92 -9z"/>
<path d="M3123 2064 c-16 -7 -19 -304 -3 -304 6 0 10 30 10 70 0 70 0 70 28
70 24 0 29 -6 50 -65 13 -36 28 -67 33 -71 15 -9 10 18 -16 76 l-24 55 25 20
c61 50 30 142 -51 150 -22 3 -46 2 -52 -1z m99 -31 c10 -9 18 -30 18 -46 0
-43 -25 -67 -72 -67 l-38 0 0 65 0 65 37 0 c20 0 45 -7 55 -17z"/>
<path d="M1037 1616 c-4 -11 -3 -24 3 -30 14 -14 18 -5 10 24 -5 23 -7 23 -13
6z"/>
<path d="M2788 743 c7 -3 16 -2 19 1 4 3 -2 6 -13 5 -11 0 -14 -3 -6 -6z"/>
</g>
</svg>
