<?xml version="1.0" standalone="no"?>
<!DOCTYPE svg PUBLIC "-//W3C//DTD SVG 20010904//EN"
 "http://www.w3.org/TR/2001/REC-SVG-20010904/DTD/svg10.dtd">
<svg version="1.0" xmlns="http://www.w3.org/2000/svg"
 width="473.000000pt" height="492.000000pt" viewBox="0 0 473.000000 492.000000"
 preserveAspectRatio="xMidYMid meet">

<g transform="translate(0.000000,492.000000) scale(0.100000,-0.100000)"
fill="#000000" stroke="none">
<path d="M2106 4389 c-93 -14 -199 -46 -375 -115 -146 -57 -393 -174 -445
-210 -41 -29 -373 -353 -434 -424 -135 -157 -282 -410 -369 -633 -34 -88 -36
-99 -44 -267 -5 -96 -11 -184 -13 -194 -5 -19 10 -313 19 -386 2 -19 7 -84 10
-145 9 -142 30 -246 64 -315 160 -321 218 -413 386 -611 151 -177 396 -362
655 -494 131 -66 144 -70 252 -65 28 1 56 -4 70 -14 40 -26 139 -56 218 -67
41 -5 172 -10 290 -10 333 -1 458 24 727 142 138 60 240 116 264 145 8 10 43
30 78 46 120 54 370 275 483 428 73 98 155 246 227 411 111 254 151 411 154
614 2 106 1 110 -19 113 -31 4 -57 -38 -83 -138 -42 -160 -140 -465 -175 -549
-45 -105 -120 -219 -251 -386 -134 -171 -250 -284 -388 -382 -164 -116 -204
-139 -283 -162 -39 -12 -79 -30 -89 -41 -24 -26 -61 -37 -186 -54 -58 -8 -137
-27 -175 -41 -52 -20 -78 -24 -104 -19 -58 12 -146 13 -187 2 -90 -22 -606 72
-639 117 -6 8 -36 22 -65 31 -74 22 -113 43 -262 140 -169 111 -339 237 -373
276 -21 26 -23 33 -11 38 12 4 -9 33 -80 110 -52 58 -112 130 -132 160 -57 82
-121 209 -114 226 3 7 -11 53 -30 101 -19 49 -38 108 -42 132 -4 25 -20 81
-35 126 -50 142 -71 372 -55 580 2 22 0 59 -4 82 -7 34 -5 42 8 46 12 3 24 45
49 168 42 205 42 206 53 188 7 -11 11 -10 23 6 8 11 18 34 22 50 12 54 74 168
170 308 53 76 99 149 105 163 5 13 13 35 19 49 9 23 12 24 32 14 23 -13 21
-15 87 71 12 17 61 56 107 86 46 30 105 80 131 110 38 44 52 54 70 49 15 -3
30 2 43 15 13 13 33 20 60 20 62 0 115 26 145 71 23 35 30 40 54 34 23 -5 200
42 234 62 4 3 1 16 -7 29 -22 33 -21 34 25 34 39 0 41 -1 35 -26 -7 -26 -6
-26 31 -19 21 4 81 21 133 38 86 28 105 31 195 28 110 -4 243 -4 333 1 31 1
102 -6 157 -17 92 -18 104 -22 146 -62 56 -52 130 -85 189 -84 63 1 101 -14
140 -54 32 -33 38 -35 99 -35 80 0 104 11 64 29 -15 7 -62 34 -103 61 -42 27
-100 56 -132 64 -31 8 -105 39 -165 70 -135 69 -297 110 -528 135 -105 11
-384 11 -459 0z"/>
<path d="M2444 2946 c-37 -16 -59 -63 -50 -108 4 -20 29 -55 67 -95 52 -54 60
-67 57 -95 -4 -48 -43 -51 -79 -6 -23 27 -31 31 -45 22 -30 -18 -27 -33 14
-74 52 -52 98 -55 144 -10 28 28 30 35 26 81 -5 44 -11 56 -67 114 -46 47 -62
71 -59 87 4 28 39 36 58 13 16 -19 49 -20 56 -1 9 23 -15 57 -51 72 -40 16
-33 16 -71 0z"/>
<path d="M1762 2938 c-9 -9 -12 -61 -12 -184 0 -142 3 -175 15 -188 30 -30 45
-9 45 63 0 72 10 91 47 91 13 0 26 7 29 15 8 21 -16 47 -37 42 -27 -7 -41 16
-37 65 l3 43 50 5 c45 5 50 7 50 30 0 24 -3 25 -70 28 -46 2 -74 -1 -83 -10z"/>
<path d="M2115 2938 c-18 -48 -102 -364 -98 -370 2 -5 14 -8 27 -8 18 0 27 10
39 41 15 39 17 40 58 37 28 -2 45 -9 50 -20 5 -10 13 -26 18 -35 7 -17 61 -32
61 -18 0 11 -100 367 -106 376 -8 13 -44 11 -49 -3z m55 -230 c0 -5 -14 -8
-30 -8 -28 0 -30 2 -24 28 4 15 11 38 17 52 9 24 10 23 23 -20 7 -25 14 -48
14 -52z"/>
<path d="M2694 2935 c-10 -25 3 -43 33 -47 l28 -3 3 -163 3 -163 27 3 c31 4
29 -9 31 180 l1 147 28 3 c21 2 27 8 27 28 0 25 -2 25 -88 28 -71 2 -88 0 -93
-13z"/>
<path d="M1590 2278 c-28 -15 -50 -52 -50 -86 0 -35 23 -72 79 -127 36 -35 51
-57 51 -76 0 -54 -52 -62 -84 -14 -19 29 -51 33 -60 8 -9 -22 41 -84 78 -96
63 -21 126 26 126 93 0 53 -17 84 -79 143 -51 49 -61 73 -39 95 17 17 24 15
47 -9 23 -25 55 -22 59 6 7 46 -79 88 -128 63z"/>
<path d="M2192 2278 c-14 -17 -112 -370 -106 -380 8 -12 40 -9 51 5 6 6 13 24
17 40 6 25 10 27 56 27 46 0 50 -2 56 -27 4 -16 11 -34 17 -40 11 -15 43 -17
51 -5 7 11 -90 360 -105 378 -14 17 -24 18 -37 2z m39 -241 c-5 -5 -17 -7 -27
-5 -21 4 -21 30 -2 77 11 26 11 25 24 -19 8 -26 10 -48 5 -53z"/>
<path d="M2718 2275 c-46 -25 -73 -97 -73 -195 0 -101 22 -154 76 -184 39 -21
72 -18 108 11 43 35 -1 71 -48 41 -39 -24 -81 44 -81 129 0 99 40 170 80 145
19 -11 60 -17 60 -8 0 2 3 11 6 20 4 10 -5 22 -28 36 -39 23 -63 25 -100 5z"/>
<path d="M1016 2264 c-3 -9 -6 -89 -6 -179 0 -90 3 -170 6 -179 9 -22 140 -23
172 0 43 30 57 72 57 174 0 156 -35 200 -158 200 -50 0 -66 -4 -71 -16z m149
-68 c22 -34 30 -151 13 -201 -13 -39 -15 -40 -58 -40 l-45 0 -3 119 c-1 66 0
126 2 133 3 7 21 13 40 13 26 0 40 -6 51 -24z"/>
<path d="M1356 2264 c-8 -20 -8 -322 0 -351 7 -26 48 -32 57 -9 8 19 8 343 0
361 -7 20 -49 19 -57 -1z"/>
<path d="M1844 2267 c-2 -7 -3 -94 -2 -192 l3 -180 25 0 c22 0 25 5 28 41 3
41 4 42 45 47 53 7 82 40 91 101 11 71 -3 136 -35 168 -24 25 -35 28 -89 28
-40 0 -62 -4 -66 -13z m129 -90 c5 -21 5 -58 0 -85 -8 -44 -10 -47 -38 -47
l-30 0 -3 88 -3 88 33 -3 c28 -3 33 -8 41 -41z"/>
<path d="M2367 2268 c-8 -22 13 -48 38 -48 l25 0 2 -162 3 -163 25 0 25 0 3
163 2 162 24 0 c29 0 49 22 40 44 -5 13 -22 16 -94 16 -62 0 -90 -4 -93 -12z"/>
<path d="M2956 2263 c-8 -19 -7 -340 1 -360 3 -7 16 -13 29 -13 23 0 24 3 24
68 0 82 7 94 51 90 l34 -3 5 -75 c5 -72 6 -75 30 -75 l25 0 0 190 0 190 -25 0
c-24 0 -25 -3 -30 -80 l-5 -80 -40 0 -40 0 -3 83 c-3 79 -4 82 -26 82 -13 0
-27 -8 -30 -17z"/>
<path d="M3270 2085 l0 -195 79 0 c64 0 80 3 85 16 10 27 -13 44 -60 44 -45 0
-46 1 -46 50 0 45 3 49 35 52 27 2 32 7 32 28 0 21 -5 26 -32 28 -33 3 -33 4
-33 58 l0 54 44 0 c47 0 70 17 60 44 -5 13 -21 16 -85 16 l-79 0 0 -195z"/>
<path d="M3547 2266 c-9 -23 -8 -350 2 -364 4 -8 17 -12 27 -10 14 2 20 13 22
46 2 23 6 42 10 42 4 0 20 -20 35 -45 23 -37 34 -45 58 -45 34 0 36 11 8 56
l-21 34 26 52 c40 79 31 170 -20 222 -23 22 -36 26 -84 26 -40 0 -60 -4 -63
-14z m118 -76 c31 -60 11 -145 -35 -145 -24 0 -25 3 -28 74 -2 41 -1 80 2 88
10 24 45 14 61 -17z"/>
</g>
</svg>
